<?xml version="1.0" encoding="UTF-8"?>
<svg xmlns="http://www.w3.org/2000/svg" version="1.1" xmlns:xlink="http://www.w3.org/1999/xlink" viewBox="0 0 1024 1024">
  <!-- Generator: Adobe Illustrator 29.8.1, SVG Export Plug-In . SVG Version: 2.1.1 Build 2)  -->
  <defs>
    <style>
      .st0 {
        fill: url(#linear-gradient10);
      }

      .st1 {
        fill: #782d79;
      }

      .st2 {
        fill: #fff;
      }

      .st3 {
        fill: #b9470d;
      }

      .st4 {
        fill: url(#linear-gradient1);
      }

      .st5 {
        fill: url(#linear-gradient9);
      }

      .st6 {
        fill: #ffe200;
        stroke: #000;
        stroke-width: 42px;
      }

      .st6, .st7, .st8 {
        stroke-miterlimit: 10;
      }

      .st9 {
        fill: url(#linear-gradient8);
      }

      .st10 {
        fill: url(#linear-gradient11);
      }

      .st11 {
        display: none;
        fill: #adafb2;
      }

      .st12 {
        fill: url(#linear-gradient12);
      }

      .st13 {
        fill: url(#linear-gradient7);
      }

      .st14 {
        fill: url(#linear-gradient2);
        opacity: .23;
      }

      .st15 {
        fill: url(#linear-gradient3);
      }

      .st7 {
        fill: url(#linear-gradient4);
      }

      .st7, .st8 {
        stroke: #5a195b;
        stroke-width: 27px;
      }

      .st8 {
        fill: url(#linear-gradient5);
      }

      .st16 {
        fill: url(#linear-gradient6);
      }

      .st17 {
        fill: url(#linear-gradient);
        fill-opacity: .58;
      }
    </style>
    <linearGradient id="linear-gradient" x1="511.9" y1="156.37" x2="511.9" y2="868.54" gradientUnits="userSpaceOnUse">
      <stop offset="0" stop-color="#adafb2" stop-opacity=".1"/>
      <stop offset="1" stop-color="#231f20"/>
    </linearGradient>
    <linearGradient id="linear-gradient1" x1="290.3" y1="534.68" x2="337.48" y2="616.39" gradientTransform="translate(4618.59 3748.09) rotate(-83.79) scale(8.83 -7.7)" gradientUnits="userSpaceOnUse">
      <stop offset="0" stop-color="#fff"/>
      <stop offset="0" stop-color="#cf6b4f"/>
      <stop offset="1" stop-color="#fff" stop-opacity="0"/>
    </linearGradient>
    <linearGradient id="linear-gradient2" x1="90.9" y1="438.68" x2="847.4" y2="438.68" gradientUnits="userSpaceOnUse">
      <stop offset="0" stop-color="#fff"/>
      <stop offset=".2" stop-color="#231f20"/>
    </linearGradient>
    <linearGradient id="linear-gradient3" x1="538.35" y1="121.63" x2="588.17" y2="207.92" gradientTransform="translate(2834.16 -67.19) rotate(-180) scale(4.4 -2.16)" gradientUnits="userSpaceOnUse">
      <stop offset="0" stop-color="#fff"/>
      <stop offset="0" stop-color="#fff"/>
      <stop offset="1" stop-color="#fff" stop-opacity="0"/>
    </linearGradient>
    <linearGradient id="linear-gradient4" x1="537.37" y1="320.62" x2="913.24" y2="320.62" gradientUnits="userSpaceOnUse">
      <stop offset="0" stop-color="#9916ac"/>
      <stop offset="1" stop-color="#db088c"/>
    </linearGradient>
    <linearGradient id="linear-gradient5" x1="887.92" y1="320.62" x2="1263.8" y2="320.62" gradientTransform="translate(1374.64) rotate(-180) scale(1 -1)" xlink:href="#linear-gradient4"/>
    <linearGradient id="linear-gradient6" x1="875.74" y1="319.11" x2="694.13" y2="319.11" gradientUnits="userSpaceOnUse">
      <stop offset="0" stop-color="#9916ac"/>
      <stop offset=".4" stop-color="#9915ab" stop-opacity=".99"/>
      <stop offset=".55" stop-color="#9c15aa" stop-opacity=".95"/>
      <stop offset=".65" stop-color="#a014a8" stop-opacity=".88"/>
      <stop offset=".74" stop-color="#a712a5" stop-opacity=".78"/>
      <stop offset=".81" stop-color="#af11a0" stop-opacity=".65"/>
      <stop offset=".87" stop-color="#ba0e9b" stop-opacity=".5"/>
      <stop offset=".93" stop-color="#c60c95" stop-opacity=".31"/>
      <stop offset=".98" stop-color="#d4098f" stop-opacity=".1"/>
      <stop offset="1" stop-color="#db088c" stop-opacity="0"/>
    </linearGradient>
    <linearGradient id="linear-gradient7" x1="548.35" y1="152.92" x2="617.74" y2="32.74" gradientTransform="translate(966.78 -239.75) rotate(111.06) scale(1 1.19)" gradientUnits="userSpaceOnUse">
      <stop offset="0" stop-color="#fff" stop-opacity=".5"/>
      <stop offset=".13" stop-color="#fff" stop-opacity=".56"/>
      <stop offset=".72" stop-color="#fff" stop-opacity=".8"/>
      <stop offset="1" stop-color="#fff" stop-opacity=".9"/>
    </linearGradient>
    <linearGradient id="linear-gradient8" x1="695.81" y1="288.56" x2="765.2" y2="168.39" gradientUnits="userSpaceOnUse">
      <stop offset="0" stop-color="#fff" stop-opacity=".5"/>
      <stop offset=".13" stop-color="#fff" stop-opacity=".56"/>
      <stop offset=".72" stop-color="#fff" stop-opacity=".8"/>
      <stop offset="1" stop-color="#fff" stop-opacity=".9"/>
    </linearGradient>
    <linearGradient id="linear-gradient9" x1="462.3" y1="320.7" x2="280.68" y2="320.7" gradientTransform="translate(611.74) rotate(-180) scale(1 -1)" xlink:href="#linear-gradient6"/>
    <linearGradient id="linear-gradient10" x1="697.99" y1="476.1" x2="767.37" y2="355.93" gradientTransform="translate(-355.03 -239.75) rotate(68.94) scale(1 -1.19)" gradientUnits="userSpaceOnUse">
      <stop offset="0" stop-color="#fff" stop-opacity=".5"/>
      <stop offset=".29" stop-color="#f3b0da" stop-opacity=".34"/>
      <stop offset=".77" stop-color="#e137a2" stop-opacity=".1"/>
      <stop offset="1" stop-color="#db088c" stop-opacity="0"/>
    </linearGradient>
    <linearGradient id="linear-gradient11" x1="271.74" y1="284.28" x2="325.83" y2="190.59" gradientTransform="translate(-15.82)" gradientUnits="userSpaceOnUse">
      <stop offset="0" stop-color="#fff" stop-opacity=".5"/>
      <stop offset=".02" stop-color="#fff" stop-opacity=".51"/>
      <stop offset=".69" stop-color="#fff" stop-opacity=".79"/>
      <stop offset="1" stop-color="#fff" stop-opacity=".9"/>
    </linearGradient>
    <linearGradient id="linear-gradient12" x1="753.09" y1="439.69" x2="798.93" y2="360.28" gradientTransform="translate(951.46 -239.75) rotate(111.06) scale(1 1.19)" gradientUnits="userSpaceOnUse">
      <stop offset="0" stop-color="#fff" stop-opacity=".5"/>
      <stop offset=".13" stop-color="#fff" stop-opacity=".56"/>
      <stop offset=".72" stop-color="#fff" stop-opacity=".8"/>
      <stop offset="1" stop-color="#fff" stop-opacity=".9"/>
    </linearGradient>
  </defs>
  <g id="base-orb">
    <circle id="theme-color-bg" class="st11" cx="541.9" cy="552.45" r="423.07"/>
    <circle id="outer-circle" class="st6" cx="511.9" cy="512.45" r="408.5"/>
    <circle id="bg-gradient" class="st17" cx="511.9" cy="512.45" r="356.09"/>
    <circle id="tangerine-shadow" class="st4" cx="510.17" cy="514.43" r="374.7"/>
    <path id="top-inner-shadow" class="st14" d="M189.4,775.95c-38.36-62.24-60.5-135.55-60.5-214.03,0-225.61,182.89-408.5,408.5-408.5,123.99,0,235.08,55.25,310,142.47-71.92-116.68-200.87-194.47-348-194.47-225.61,0-408.5,182.89-408.5,408.5,0,101.61,37.11,194.56,98.5,266.03Z"/>
    <ellipse id="top-left-highlight" class="st15" cx="354.46" cy="288.18" rx="197.37" ry="110.78" transform="translate(-101.77 264.77) rotate(-36.17)"/>
  </g>
  <g id="excited">
    <g id="mouth">
      <path id="mouth-outline" d="M746.89,575.36s-54.81,180.61-231.1,180.72c-183.74.11-236.94-178.49-236.94-178.49l468.04-2.23Z"/>
      <path id="tongue" class="st3" d="M430.77,712.3s27.46,16.51,81.13,16.51,84.32-16.51,84.32-16.51c0,0-17.33-36.44-82.72-36.44s-82.72,36.44-82.72,36.44Z"/>
      <path id="teeth" class="st2" d="M312.04,591.17l402.83-1-5.55,32.99s-53.96,22.44-197.28,22.44-193.87-22.44-193.87-22.44l-6.13-31.99Z"/>
    </g>
    <g id="eyes">
      <path class="st7" d="M558,454.55c-11.36-20.18,50.44-100.71,45.06-137.36-5.38-36.65-74.04-97.02-64.85-110.3s122.04,13.79,141.96,5.62c19.91-8.17,61.23-88.56,81.7-88.56s31.04,99.55,45.14,121.88c14.1,22.33,113.93,27.15,105.76,57.77-8.17,30.63-88.04,49.75-94.21,83.54-6.18,33.79,11.74,118.47-7.15,129.19-18.89,10.72-74.55-72-118.47-77.11-74.11-7.15-123.58,35.5-134.94,15.32Z"/>
      <path class="st8" d="M466.08,454.55c11.36-20.18-50.44-100.71-45.06-137.36,5.38-36.65,74.04-97.02,64.85-110.3-9.19-13.28-122.04,13.79-141.96,5.62-19.91-8.17-61.23-88.56-81.7-88.56-20.47,0-31.04,99.55-45.14,121.88s-113.93,27.15-105.76,57.77c8.17,30.63,88.04,49.75,94.21,83.54s-11.74,118.47,7.15,129.19c18.89,10.72,74.55-72,118.47-77.11,74.11-7.15,123.58,35.5,134.94,15.32Z"/>
      <g>
        <path class="st16" d="M694.13,409.49s18.28-2.22,38.64,12.08c20.36,14.3,57.78,52.39,62.3,52.39s-11.16-89.29,7.22-117.88c11.98-18.63,73.46-45.99,73.46-52.46s-82.19-23.86-89.36-33.14c-7.18-9.28-28.34-106.21-28.34-106.21l-63.91,245.23Z"/>
        <polygon class="st13" points="714.87 319.46 572.89 225.91 666.92 234.77 714.87 319.46"/>
        <polygon class="st1" points="694.13 409.49 591.32 426.47 721.02 323.58 694.13 409.49"/>
        <polygon class="st9" points="758.04 164.26 721.87 303.61 696.42 227.33 758.04 164.26"/>
      </g>
      <g>
        <path class="st5" d="M331.06,411.08s-18.28-2.22-38.64,12.08c-20.36,14.3-57.78,52.39-62.3,52.39s11.16-89.29-7.22-117.88c-11.98-18.63-73.46-45.99-73.46-52.46,0-6.47,82.19-23.86,89.36-33.14s28.34-106.21,28.34-106.21l63.91,245.23Z"/>
        <polygon class="st0" points="310.32 321.06 452.3 227.51 358.27 236.36 310.32 321.06"/>
        <polygon class="st1" points="331.06 411.08 433.87 428.06 304.17 325.18 331.06 411.08"/>
        <polygon class="st10" points="267.15 165.85 298.78 309.02 244.4 257.81 267.15 165.85"/>
      </g>
      <polygon class="st12" points="304.17 325.18 149.45 305.2 229.45 275.53 304.17 325.18"/>
    </g>
  </g>
</svg>