<?xml version="1.0" encoding="UTF-8"?>
<svg id="Layer_1" xmlns="http://www.w3.org/2000/svg" version="1.1" xmlns:xlink="http://www.w3.org/1999/xlink" viewBox="0 0 1024 1024">
  <!-- Generator: Adobe Illustrator 29.8.1, SVG Export Plug-In . SVG Version: 2.1.1 Build 2)  -->
  <defs>
    <style>
      .st0 {
        fill: url(#linear-gradient);
        fill-opacity: .58;
      }

      .st1 {
        fill: #b9470d;
      }

      .st2 {
        fill: url(#linear-gradient1);
      }

      .st3 {
        fill: #ffe200;
        stroke: #000;
        stroke-width: 42px;
      }

      .st3, .st4 {
        stroke-miterlimit: 10;
      }

      .st4 {
        fill: #fff;
        stroke: #231f20;
        stroke-width: 23px;
      }

      .st5 {
        fill: #231f20;
      }

      .st6 {
        display: none;
        fill: #adafb2;
      }

      .st7 {
        fill: url(#linear-gradient4);
      }

      .st8 {
        fill: url(#linear-gradient5);
      }

      .st9 {
        fill: url(#linear-gradient3);
      }

      .st10 {
        fill: url(#linear-gradient2);
        isolation: isolate;
        opacity: .23;
      }
    </style>
    <linearGradient id="linear-gradient" x1="511.9" y1="869.64" x2="511.9" y2="157.46" gradientTransform="translate(0 1026) scale(1 -1)" gradientUnits="userSpaceOnUse">
      <stop offset="0" stop-color="#adafb2" stop-opacity=".1"/>
      <stop offset="1" stop-color="#231f20"/>
    </linearGradient>
    <linearGradient id="linear-gradient1" x1="-154.52" y1="576.26" x2="-107.33" y2="494.53" gradientTransform="translate(-3461.97 -1079.84) rotate(-83.79) scale(8.83 7.7)" gradientUnits="userSpaceOnUse">
      <stop offset="0" stop-color="#fff"/>
      <stop offset="0" stop-color="#cf6b4f"/>
      <stop offset="1" stop-color="#fff" stop-opacity="0"/>
    </linearGradient>
    <linearGradient id="linear-gradient2" x1="90.9" y1="587.31" x2="847.4" y2="587.31" gradientTransform="translate(0 1026) scale(1 -1)" gradientUnits="userSpaceOnUse">
      <stop offset="0" stop-color="#fff"/>
      <stop offset=".2" stop-color="#231f20"/>
    </linearGradient>
    <linearGradient id="linear-gradient3" x1="13.29" y1="799.35" x2="63.11" y2="713.06" gradientTransform="translate(522.44 1921.71) rotate(-180) scale(4.4 2.16)" gradientUnits="userSpaceOnUse">
      <stop offset="0" stop-color="#fff"/>
      <stop offset="0" stop-color="#fff"/>
      <stop offset="1" stop-color="#fff" stop-opacity="0"/>
    </linearGradient>
    <linearGradient id="linear-gradient4" x1="-56.01" y1="1019.62" x2="120.1" y2="1019.62" gradientTransform="translate(-419.92 9.69) rotate(-68) scale(.75 .78)" gradientUnits="userSpaceOnUse">
      <stop offset="0" stop-color="#231f20" stop-opacity="0"/>
      <stop offset="0" stop-color="#231f20" stop-opacity=".07"/>
      <stop offset="0" stop-color="#231f20" stop-opacity=".29"/>
      <stop offset="0" stop-color="#231f20" stop-opacity=".68"/>
      <stop offset="0" stop-color="#231f20"/>
    </linearGradient>
    <linearGradient id="linear-gradient5" x1="-712.03" y1="-544.82" x2="-535.92" y2="-544.82" gradientTransform="translate(133.13 9.69) rotate(-112) scale(.75 -.78)" gradientUnits="userSpaceOnUse">
      <stop offset="0" stop-color="#231f20" stop-opacity="0"/>
      <stop offset="0" stop-color="#231f20" stop-opacity=".07"/>
      <stop offset="0" stop-color="#231f20" stop-opacity=".29"/>
      <stop offset="0" stop-color="#231f20" stop-opacity=".68"/>
      <stop offset="0" stop-color="#231f20"/>
    </linearGradient>
  </defs>
  <g id="base-orb">
    <circle id="theme-color-bg" class="st6" cx="541.9" cy="552.45" r="423.07"/>
    <circle id="outer-circle" class="st3" cx="511.9" cy="512.45" r="408.5"/>
    <circle id="bg-gradient" class="st0" cx="511.9" cy="512.45" r="356.09"/>
    <circle id="tangerine-shadow" class="st2" cx="510.17" cy="514.43" r="374.7"/>
    <path id="top-inner-shadow" class="st10" d="M189.4,775.95c-38.36-62.24-60.5-135.55-60.5-214.03,0-225.61,182.89-408.5,408.5-408.5,123.99,0,235.08,55.25,310,142.47-71.92-116.68-200.87-194.47-348-194.47-225.61,0-408.5,182.89-408.5,408.5,0,101.61,37.11,194.56,98.5,266.03h0Z"/>
    <ellipse id="top-left-highlight" class="st9" cx="354.45" cy="288.21" rx="197.37" ry="110.78" transform="translate(-101.78 264.74) rotate(-36.17)"/>
  </g>
  <g id="fear">
    <g id="left-eye1">
      <circle id="eye-outline2" class="st4" cx="364" cy="461" r="106"/>
      <circle id="pupil2" class="st5" cx="394" cy="461" r="48"/>
    </g>
    <g id="right-eye1">
      <circle id="eye-outline3" class="st4" cx="664" cy="461" r="106"/>
      <circle id="pupil3" class="st5" cx="634" cy="461" r="48"/>
    </g>
    <g id="mouth1">
      <path id="mouth-bg1" class="st5" d="M682.08,743c-12.04,17.98-21.04-10.87-169.56-10.87s-156.53,25.4-166.6,7.87c-20.13-35.06,52.8-149,166.08-149s194.16,116.05,170.08,152Z"/>
      <path id="tongue1" class="st1" d="M428.91,710.6s31.16-5.54,85.55-5.54,79.9,5.54,79.9,5.54c0,0-17.33-38.44-82.72-38.44s-82.72,38.44-82.72,38.44h-.01Z"/>
    </g>
    <path id="left-brow1" class="st7" d="M254.65,325.46c1.13,4.67,12.75,6.03,15.81,6.39,36.08,4.23,80.74-26.18,99.39-43.86,7.98-7.57,24.2-24.86,24.15-34.21-.09-15.58-21.71-22.2-28.24-21.18-4.32.67-.04,25.39-37.12,53.92-31.81,24.47-74.63,36.33-74,38.94h.01Z"/>
    <path id="right-brow1" class="st8" d="M774.28,324.53c-1.13,4.67-12.75,6.03-15.81,6.39-36.08,4.23-80.74-26.18-99.39-43.86-7.98-7.57-24.2-24.86-24.15-34.21.09-15.58,21.71-22.2,28.24-21.18,4.32.67.04,25.39,37.12,53.92,31.81,24.47,74.63,36.33,74,38.94h0Z"/>
  </g>
</svg>