<?xml version="1.0" encoding="UTF-8"?>
<svg id="Layer_1" xmlns="http://www.w3.org/2000/svg" version="1.1" xmlns:xlink="http://www.w3.org/1999/xlink" viewBox="0 0 1024 1024">
  <!-- Generator: Adobe Illustrator 29.8.1, SVG Export Plug-In . SVG Version: 2.1.1 Build 2)  -->
  <defs>
    <style>
      .st0 {
        fill: url(#linear-gradient);
        fill-opacity: .58;
      }

      .st1 {
        fill: url(#linear-gradient1);
      }

      .st2 {
        fill: #ffe200;
        stroke: #000;
        stroke-width: 42px;
      }

      .st2, .st3 {
        stroke-miterlimit: 10;
      }

      .st3 {
        fill: #fff;
        stroke: #231f20;
        stroke-width: 23px;
      }

      .st4 {
        fill: #231f20;
      }

      .st5 {
        display: none;
        fill: #adafb2;
      }

      .st6 {
        fill: url(#linear-gradient4);
      }

      .st7 {
        fill: url(#linear-gradient5);
      }

      .st8 {
        fill: url(#linear-gradient3);
      }

      .st9 {
        fill: url(#linear-gradient6);
      }

      .st10 {
        fill: url(#linear-gradient2);
        isolation: isolate;
        opacity: .23;
      }
    </style>
    <linearGradient id="linear-gradient" x1="511.9" y1="869.64" x2="511.9" y2="157.46" gradientTransform="translate(0 1026) scale(1 -1)" gradientUnits="userSpaceOnUse">
      <stop offset="0" stop-color="#adafb2" stop-opacity=".1"/>
      <stop offset="1" stop-color="#231f20"/>
    </linearGradient>
    <linearGradient id="linear-gradient1" x1="-154.52" y1="576.26" x2="-107.33" y2="494.53" gradientTransform="translate(-3461.97 -1079.84) rotate(-83.79) scale(8.83 7.7)" gradientUnits="userSpaceOnUse">
      <stop offset="0" stop-color="#fff"/>
      <stop offset="0" stop-color="#cf6b4f"/>
      <stop offset="1" stop-color="#fff" stop-opacity="0"/>
    </linearGradient>
    <linearGradient id="linear-gradient2" x1="90.9" y1="587.31" x2="847.4" y2="587.31" gradientTransform="translate(0 1026) scale(1 -1)" gradientUnits="userSpaceOnUse">
      <stop offset="0" stop-color="#fff"/>
      <stop offset=".2" stop-color="#231f20"/>
    </linearGradient>
    <linearGradient id="linear-gradient3" x1="13.29" y1="799.35" x2="63.11" y2="713.06" gradientTransform="translate(522.44 1921.71) rotate(-180) scale(4.4 2.16)" gradientUnits="userSpaceOnUse">
      <stop offset="0" stop-color="#fff"/>
      <stop offset="0" stop-color="#fff"/>
      <stop offset="1" stop-color="#fff" stop-opacity="0"/>
    </linearGradient>
    <linearGradient id="linear-gradient4" x1="515.63" y1="375.16" x2="515.63" y2="330.4" gradientTransform="translate(0 1026) scale(1 -1)" gradientUnits="userSpaceOnUse">
      <stop offset="0" stop-color="#231f20"/>
      <stop offset="1" stop-color="#231f20"/>
    </linearGradient>
    <linearGradient id="linear-gradient5" x1="-1274.89" y1="425.78" x2="-1130.22" y2="425.78" gradientTransform="translate(-186.39 1268.76) rotate(151.71)" gradientUnits="userSpaceOnUse">
      <stop offset="0" stop-color="#231f20" stop-opacity="0"/>
      <stop offset="0" stop-color="#231f20" stop-opacity=".07"/>
      <stop offset="0" stop-color="#231f20" stop-opacity=".29"/>
      <stop offset="0" stop-color="#231f20" stop-opacity=".68"/>
      <stop offset="0" stop-color="#231f20"/>
    </linearGradient>
    <linearGradient id="linear-gradient6" x1="-729.09" y1="719.54" x2="-584.42" y2="719.54" gradientTransform="translate(596.77 1268.76) rotate(28.29) scale(1 -1)" gradientUnits="userSpaceOnUse">
      <stop offset="0" stop-color="#231f20" stop-opacity="0"/>
      <stop offset="0" stop-color="#231f20" stop-opacity=".07"/>
      <stop offset="0" stop-color="#231f20" stop-opacity=".29"/>
      <stop offset="0" stop-color="#231f20" stop-opacity=".68"/>
      <stop offset="0" stop-color="#231f20"/>
    </linearGradient>
  </defs>
  <g id="base-orb">
    <circle id="theme-color-bg" class="st5" cx="541.9" cy="552.45" r="423.07"/>
    <circle id="outer-circle" class="st2" cx="511.9" cy="512.45" r="408.5"/>
    <circle id="bg-gradient" class="st0" cx="511.9" cy="512.45" r="356.09"/>
    <circle id="tangerine-shadow" class="st1" cx="510.17" cy="514.43" r="374.7"/>
    <path id="top-inner-shadow" class="st10" d="M189.4,775.95c-38.36-62.24-60.5-135.55-60.5-214.03,0-225.61,182.89-408.5,408.5-408.5,123.99,0,235.08,55.25,310,142.47-71.92-116.68-200.87-194.47-348-194.47-225.61,0-408.5,182.89-408.5,408.5,0,101.61,37.11,194.56,98.5,266.03h0Z"/>
    <ellipse id="top-left-highlight" class="st8" cx="354.45" cy="288.21" rx="197.37" ry="110.78" transform="translate(-101.78 264.74) rotate(-36.17)"/>
  </g>
  <g id="neutral">
    <path id="mouth" class="st6" d="M511.35,650.84c108.33,0,168.67,9.86,168.67,9.86h0c3.87,11.85-4.13,24.26-16.53,25.62-32.79,3.58-94.2,9.28-152.27,9.28s-111.84-5.32-143.07-8.9c-12.99-1.49-21.15-14.75-16.63-27.02h0s51.49-8.83,159.82-8.83h.01Z"/>
    <g id="left-eye">
      <circle id="eye-outline" class="st3" cx="364" cy="461" r="106"/>
      <circle id="pupil" class="st4" cx="384" cy="471" r="48"/>
    </g>
    <g id="right-eye">
      <circle id="eye-outline1" class="st3" cx="664" cy="461" r="106"/>
      <circle id="pupil1" class="st4" cx="644" cy="471" r="48"/>
    </g>
    <path id="right-brow" class="st7" d="M759.13,335.58c-40.12-45.59-87.94-53.98-121.84-51.18-14.51,1.2-46.47,7.61-51.37,18.57-4.9,10.96-.3,19.76,9.49,23.35,25.61,9.4,12.61-18.39,78.96-8.53,38.6,5.73,68.51,31.88,72.5,33.01,7.01,1.99,14.87-12.26,12.26-15.22h0Z"/>
    <path id="left-brow" class="st9" d="M271.08,335.58c40.12-45.59,87.94-53.98,121.84-51.18,14.51,1.2,46.47,7.61,51.37,18.57,4.9,10.96.3,19.76-9.49,23.35-25.61,9.4-12.61-18.39-78.96-8.53-38.6,5.73-68.51,31.88-72.5,33.01-7.01,1.99-14.87-12.26-12.26-15.22h0Z"/>
  </g>
</svg>