<?xml version="1.0" encoding="UTF-8"?>
<svg id="Layer_1" xmlns="http://www.w3.org/2000/svg" version="1.1" xmlns:xlink="http://www.w3.org/1999/xlink" viewBox="0 0 1024 1024">
  <!-- Generator: Adobe Illustrator 29.8.1, SVG Export Plug-In . SVG Version: 2.1.1 Build 2)  -->
  <defs>
    <style>
      .st0 {
        fill: url(#linear-gradient);
        fill-opacity: .58;
      }

      .st1, .st2 {
        fill: #fff;
      }

      .st3 {
        fill: #b9470d;
      }

      .st4 {
        fill: url(#linear-gradient1);
      }

      .st5 {
        fill: #ffe200;
        stroke: #000;
        stroke-width: 42px;
      }

      .st5, .st2 {
        stroke-miterlimit: 10;
      }

      .st2 {
        stroke: #231f20;
        stroke-width: 23px;
      }

      .st6 {
        fill: #231f20;
      }

      .st7 {
        display: none;
        fill: #adafb2;
      }

      .st8 {
        fill: url(#linear-gradient4);
      }

      .st9 {
        fill: url(#linear-gradient5);
      }

      .st10 {
        fill: url(#linear-gradient3);
      }

      .st11 {
        fill: url(#linear-gradient2);
        isolation: isolate;
        opacity: .23;
      }
    </style>
    <linearGradient id="linear-gradient" x1="511.9" y1="869.64" x2="511.9" y2="157.46" gradientTransform="translate(0 1026) scale(1 -1)" gradientUnits="userSpaceOnUse">
      <stop offset="0" stop-color="#adafb2" stop-opacity=".1"/>
      <stop offset="1" stop-color="#231f20"/>
    </linearGradient>
    <linearGradient id="linear-gradient1" x1="-154.52" y1="576.26" x2="-107.33" y2="494.53" gradientTransform="translate(-3461.97 -1079.84) rotate(-83.79) scale(8.83 7.7)" gradientUnits="userSpaceOnUse">
      <stop offset="0" stop-color="#fff"/>
      <stop offset="0" stop-color="#cf6b4f"/>
      <stop offset="1" stop-color="#fff" stop-opacity="0"/>
    </linearGradient>
    <linearGradient id="linear-gradient2" x1="90.9" y1="587.31" x2="847.4" y2="587.31" gradientTransform="translate(0 1026) scale(1 -1)" gradientUnits="userSpaceOnUse">
      <stop offset="0" stop-color="#fff"/>
      <stop offset=".2" stop-color="#231f20"/>
    </linearGradient>
    <linearGradient id="linear-gradient3" x1="13.29" y1="799.35" x2="63.11" y2="713.06" gradientTransform="translate(522.44 1921.71) rotate(-180) scale(4.4 2.16)" gradientUnits="userSpaceOnUse">
      <stop offset="0" stop-color="#fff"/>
      <stop offset="0" stop-color="#fff"/>
      <stop offset="1" stop-color="#fff" stop-opacity="0"/>
    </linearGradient>
    <linearGradient id="linear-gradient4" x1="238.97" y1="733.9" x2="415.1" y2="733.9" gradientTransform="translate(21.23 1027.9) rotate(-1.63) scale(1 -1)" gradientUnits="userSpaceOnUse">
      <stop offset="0" stop-color="#231f20" stop-opacity="0"/>
      <stop offset="0" stop-color="#231f20" stop-opacity=".07"/>
      <stop offset="0" stop-color="#231f20" stop-opacity=".29"/>
      <stop offset="0" stop-color="#231f20" stop-opacity=".68"/>
      <stop offset="0" stop-color="#231f20"/>
    </linearGradient>
    <linearGradient id="linear-gradient5" x1="-994.09" y1="711.14" x2="-817.96" y2="711.14" gradientTransform="translate(-215.14 970.08) rotate(-178.37)" gradientUnits="userSpaceOnUse">
      <stop offset="0" stop-color="#231f20" stop-opacity="0"/>
      <stop offset="0" stop-color="#231f20" stop-opacity=".07"/>
      <stop offset="0" stop-color="#231f20" stop-opacity=".29"/>
      <stop offset="0" stop-color="#231f20" stop-opacity=".68"/>
      <stop offset="0" stop-color="#231f20"/>
    </linearGradient>
  </defs>
  <g id="base-orb">
    <circle id="theme-color-bg" class="st7" cx="541.9" cy="552.45" r="423.07"/>
    <circle id="outer-circle" class="st5" cx="511.9" cy="512.45" r="408.5"/>
    <circle id="bg-gradient" class="st0" cx="511.9" cy="512.45" r="356.09"/>
    <circle id="tangerine-shadow" class="st4" cx="510.17" cy="514.43" r="374.7"/>
    <path id="top-inner-shadow" class="st11" d="M189.4,775.95c-38.36-62.24-60.5-135.55-60.5-214.03,0-225.61,182.89-408.5,408.5-408.5,123.99,0,235.08,55.25,310,142.47-71.92-116.68-200.87-194.47-348-194.47-225.61,0-408.5,182.89-408.5,408.5,0,101.61,37.11,194.56,98.5,266.03h0Z"/>
    <ellipse id="top-left-highlight" class="st10" cx="354.45" cy="288.21" rx="197.37" ry="110.78" transform="translate(-101.78 264.74) rotate(-36.17)"/>
  </g>
  <g id="surprise">
    <g id="mouth">
      <ellipse id="mouth-bg" class="st6" cx="512" cy="708" rx="96.08" ry="127"/>
      <path id="tongue" class="st3" d="M472.7,794.89s6.61,14.83,39.08,14.83,41.01-14.83,41.01-14.83c0,0-.48-17.2-40.04-17.2s-40.04,17.2-40.04,17.2h-.01Z"/>
      <path id="teeth" class="st1" d="M580.08,648h-136.16s17.35-48,68.08-48,68.08,48,68.08,48Z"/>
    </g>
    <g id="left-eye">
      <circle id="eye-outline" class="st2" cx="364" cy="461" r="106"/>
      <circle id="pupil" class="st6" cx="404" cy="471" r="48"/>
    </g>
    <g id="right-eye">
      <circle id="eye-outline1" class="st2" cx="664" cy="461" r="106"/>
      <circle id="pupil1" class="st6" cx="624" cy="471" r="48"/>
    </g>
    <path id="left-brow" class="st8" d="M243.67,353.12c-5.31-3.42-1.59-17.92-.62-21.73,11.52-45.01,70.32-84.94,101.1-99.42,13.17-6.2,42.34-17.94,53.99-13.74,19.42,7,17.62,35.77,13.31,43.13-2.85,4.86-31.74-11.18-84.66,20.53-45.39,27.2-80.15,73.15-83.12,71.24h0Z"/>
    <path id="right-brow" class="st9" d="M794.33,353.12c5.31-3.42,1.59-17.92.62-21.73-11.52-45.01-70.32-84.94-101.1-99.42-13.17-6.2-42.34-17.94-53.99-13.74-19.42,7-17.62,35.77-13.31,43.13,2.85,4.86,31.74-11.18,84.66,20.53,45.39,27.2,80.15,73.15,83.12,71.24h0Z"/>
  </g>
</svg>