# Blender 4.4.0
# www.blender.org
mtllib _1206005301_texture.mtl
o _1206005301_texture
v -0.068304 -0.630429 -0.295422
v 0.162980 -0.522461 -0.295044
v -0.279070 -0.623289 -0.093381
v -0.163302 0.517609 -0.294446
v -0.256173 0.604679 -0.133374
v -0.076703 0.621046 -0.297433
v 0.163550 0.531753 -0.294690
v 0.118896 0.735426 -0.190790
v 0.263214 0.615865 -0.119845
v 0.332905 0.521818 0.000535
v -0.162810 -0.529368 -0.294908
v -0.319710 -0.190782 -0.022533
v -0.075009 -0.805202 -0.145054
v -0.081247 0.800125 -0.143853
v 0.194666 -0.619209 -0.238501
v 0.109088 -0.752932 -0.184365
v 0.000016 1.000000 0.001666
v 0.268228 -0.611139 -0.112854
v 0.161055 0.801364 0.002552
v 0.000178 -1.000000 0.000706
v -0.333668 0.609443 -0.000480
v 0.334178 -0.516489 0.001470
v -0.333326 -0.246386 0.001025
v -0.332704 -0.196639 -0.002181
v -0.333072 -0.615625 0.004362
v -0.332881 -0.132558 0.002969
v -0.332851 -0.092898 -0.000763
v -0.333727 0.017258 0.001492
v -0.294201 -0.114139 0.069582
v -0.333530 -0.302152 -0.000242
v 0.108969 0.751855 0.185270
v -0.078010 -0.798147 0.149664
v 0.230434 -0.647043 0.179298
v -0.334178 0.195678 0.000793
v 0.268820 0.610332 0.114306
v 0.183587 -0.625972 0.256604
v 0.158445 -0.807321 -0.002188
v -0.261620 0.611498 0.124150
v -0.075902 0.809617 0.140595
v -0.164106 -0.529385 0.295989
v -0.208711 0.240617 0.217588
v -0.163997 0.526333 0.296162
v -0.070726 0.627766 0.297433
v -0.091312 -0.617244 0.296977
v 0.167379 0.206397 0.289204
v -0.163212 -0.128528 0.296161
v -0.162944 0.219414 0.296355
v 0.163578 -0.530342 0.296223
v 0.189470 0.607255 0.254175
v -0.000675 -0.617436 0.296682
v 0.163856 0.041101 0.295703
v 0.159372 0.222641 0.296290
vn -0.1923 -0.2601 -0.9462
vn 0.2007 -0.1840 -0.9622
vn -0.8723 -0.0315 -0.4879
vn 0.6284 -0.5214 -0.5773
vn 0.7185 -0.2311 -0.6560
vn -0.2600 0.7466 -0.6124
vn 0.0857 -0.5061 -0.8582
vn 0.8915 -0.3149 -0.3257
vn -0.6083 -0.5906 -0.5303
vn -0.5641 0.3893 -0.7282
vn 0.0545 0.6081 -0.7920
vn 0.6510 0.6257 -0.4297
vn 0.8519 0.2011 -0.4835
vn -0.8724 0.0017 -0.4887
vn -0.0443 -0.5704 -0.8202
vn -0.8672 0.0233 0.4974
vn -0.6952 0.5544 -0.4575
vn 0.5577 -0.7894 -0.2565
vn 0.8025 0.5874 0.1045
vn 0.7469 -0.6299 -0.2128
vn 0.7932 0.5188 0.3189
vn -0.8485 -0.0187 0.5289
vn -0.7146 -0.6023 0.3558
vn -0.6145 0.7889 -0.0087
vn 0.8523 -0.2314 -0.4691
vn -0.8967 0.0097 -0.4425
vn -0.8636 -0.0044 -0.5041
vn -0.8958 -0.0488 -0.4417
vn -0.9963 -0.0052 -0.0859
vn -0.9975 0.0349 -0.0614
vn -0.9988 0.0003 -0.0495
vn -0.8698 -0.0038 0.4934
vn -0.6902 0.5148 0.5085
vn 0.0324 0.6055 0.7952
vn -0.6800 -0.5115 0.5254
vn 0.8684 0.0205 0.4954
vn 0.8750 -0.0192 0.4837
vn 0.2871 -0.8418 0.4572
vn -0.8585 0.0169 0.5126
vn 0.7846 0.4885 0.3819
vn -0.8350 -0.3169 0.4498
vn -0.8657 -0.0002 0.5005
vn -0.6470 0.5302 0.5479
vn 0.1915 0.1731 0.9661
vn -0.0564 -0.8239 0.5640
vn 0.8659 0.0038 0.5003
vn 0.0005 -0.0005 1.0000
vn -0.8649 0.0007 0.5019
vn 0.0088 -0.0724 0.9973
vn 0.0540 -0.0474 0.9974
vn 0.8453 0.0321 0.5333
vn 0.0246 0.0260 0.9994
vt 0.498519 0.038384
vt 0.574374 0.384425
vt 0.536572 0.359855
vt 0.654135 0.335741
vt 0.616197 0.011954
vt 0.525889 0.000192
vt 0.650534 0.431700
vt 0.672951 0.374323
vt 0.511664 0.435752
vt 0.800398 0.202246
vt 0.730111 0.173964
vt 0.817046 0.156586
vt 0.043297 0.173427
vt 0.000192 0.129665
vt 0.075687 0.098795
vt 0.120661 0.150601
vt 0.167949 0.190616
vt 0.822427 0.566514
vt 0.699619 0.452091
vt 0.588527 0.467817
vt 0.681450 0.318028
vt 0.000192 0.559691
vt 0.765379 0.086662
vt 0.822427 0.088947
vt 0.020065 0.597703
vt 0.079712 0.669621
vt 0.015286 0.643853
vt 0.733470 0.000192
vt 0.073900 0.600580
vt 0.124192 0.000192
vt 0.147140 0.080362
vt 0.738695 0.601722
vt 0.697469 0.600010
vt 0.632707 0.550942
vt 0.673335 0.174067
vt 0.126248 0.571161
vt 0.685042 0.380022
vt 0.042562 0.733042
vt 0.692260 0.491231
vt 0.690754 0.471737
vt 0.690829 0.454527
vt 0.688205 0.418371
vt 0.498519 0.456056
vt 0.687883 0.431977
vt 0.335470 0.412032
vt 0.336791 0.397447
vt 0.336899 0.435758
vt 0.336565 0.356744
vt 0.333552 0.590297
vt 0.307046 0.405021
vt 0.336095 0.474658
vt 0.335823 0.454062
vt 0.339033 0.138212
vt 0.247501 0.067124
vt 0.279142 0.000192
vt 0.383375 0.068575
vt 0.447973 0.000192
vt 0.402593 0.098850
vt 0.273199 0.738357
vt 0.239955 0.660343
vt 0.195044 0.157487
vt 0.822811 0.297045
vt 0.890695 0.025437
vt 0.887644 0.329947
vt 0.337427 0.290896
vt 0.942855 0.000908
vt 0.921338 0.324251
vt 0.872403 0.498030
vt 0.845643 0.412783
vt 0.285811 0.137048
vt 0.369602 0.153634
vt 0.339417 0.142159
vt 0.471968 0.079716
vt 0.209200 0.557526
vt 0.244950 0.273606
vt 0.212410 0.167887
vt 0.195428 0.132153
vt 0.999808 0.377514
vt 0.944917 0.442123
vt 0.988476 0.105322
vt 0.210230 0.409594
vt 0.211202 0.281179
vt 0.195428 0.591281
vt 0.943173 0.298218
vt 0.999808 0.000192
vt 0.466409 0.155202
vt 0.977630 0.357466
vt 0.980294 0.148519
vt 0.407883 0.606748
vt 0.339418 0.602891
vt 0.349591 0.570949
vt 0.367478 0.302218
vt 0.370908 0.296927
vt 0.441317 0.608939
vt 0.470462 0.578696
vt 0.480656 0.432749
vt 0.364484 0.362872
vt 0.489692 0.306083
vt 0.498135 0.194361
s 1
usemtl Material.001
f 4/1/1 1/2/2 11/3/3
f 1/2/2 4/1/1 2/4/4
f 7/5/5 2/4/4 4/1/1
f 6/6/6 7/5/5 4/1/1
f 1/2/2 2/4/4 16/7/7
f 2/4/4 15/8/8 16/7/7
f 1/2/2 3/9/9 11/3/3
f 4/10/1 5/11/10 6/12/6
f 7/13/5 6/14/6 8/15/11
f 7/13/5 8/15/11 9/16/12
f 7/13/5 9/16/12 10/17/13
f 11/18/3 12/19/14 4/10/1
f 1/2/2 16/7/7 13/20/15
f 4/10/1 34/21/16 5/11/10
f 7/13/5 10/17/13 2/22/4
f 12/19/14 34/21/16 4/10/1
f 6/12/6 5/11/10 14/23/17
f 14/23/17 8/24/11 6/12/6
f 15/25/8 37/26/18 16/27/7
f 17/28/19 8/24/11 14/23/17
f 13/20/15 3/9/9 1/2/2
f 15/25/8 18/29/20 37/26/18
f 8/15/11 17/30/19 19/31/21
f 3/32/9 25/33/22 11/18/3
f 20/34/23 13/20/15 16/7/7
f 8/15/11 19/31/21 9/16/12
f 21/35/24 14/23/17 5/11/10
f 18/29/20 15/25/8 22/36/25
f 5/11/10 34/21/16 21/35/24
f 14/23/17 21/35/24 17/28/19
f 12/19/14 28/37/26 34/21/16
f 16/27/7 37/26/18 20/38/23
f 13/20/15 20/34/23 3/9/9
f 12/19/14 11/18/3 30/39/27
f 30/39/27 11/18/3 25/33/22
f 10/17/13 9/16/12 19/31/21
f 18/29/20 22/36/25 37/26/18
f 15/25/8 2/22/4 22/36/25
f 2/22/4 10/17/13 22/36/25
f 12/19/14 23/40/28 24/41/29
f 24/41/29 27/42/30 12/19/14
f 12/19/14 27/42/30 28/37/26
f 25/43/22 3/9/9 20/34/23
f 30/39/27 23/40/28 12/19/14
f 26/44/31 24/41/29 23/40/28
f 26/45/31 27/46/30 24/47/29
f 26/45/31 28/48/26 27/46/30
f 25/49/22 29/50/32 30/51/27
f 30/51/27 29/50/32 23/52/28
f 23/52/28 29/50/32 26/45/31
f 21/53/24 39/54/33 17/55/19
f 28/48/26 26/45/31 29/50/32
f 19/56/21 17/57/19 31/58/34
f 20/59/23 32/60/35 25/49/22
f 19/31/21 35/61/36 10/17/13
f 22/62/25 10/63/13 33/64/37
f 29/50/32 34/65/16 28/48/26
f 33/64/37 10/63/13 35/66/36
f 36/67/38 20/68/23 37/69/18
f 34/65/16 38/70/39 21/53/24
f 37/69/18 22/62/25 33/64/37
f 19/56/21 49/71/40 35/72/36
f 21/53/24 38/70/39 39/54/33
f 19/56/21 31/58/34 49/71/40
f 37/69/18 33/64/37 36/67/38
f 39/73/33 31/58/34 17/57/19
f 32/60/35 40/74/41 25/49/22
f 41/75/42 38/70/39 34/65/16
f 25/49/22 40/74/41 29/50/32
f 39/54/33 38/70/39 42/76/43
f 42/76/43 43/77/44 39/54/33
f 20/68/23 44/78/45 32/79/35
f 33/64/37 35/66/36 45/80/46
f 29/50/32 41/75/42 34/65/16
f 29/50/32 46/81/47 47/82/48
f 47/82/48 41/75/42 29/50/32
f 32/60/35 44/83/45 40/74/41
f 36/67/38 33/64/37 48/84/49
f 45/80/46 35/66/36 49/85/40
f 20/68/23 36/67/38 44/78/45
f 40/74/41 46/81/47 29/50/32
f 43/86/44 31/58/34 39/73/33
f 43/86/44 49/71/40 31/58/34
f 41/75/42 47/82/48 38/70/39
f 44/78/45 36/67/38 50/87/50
f 45/80/46 51/88/51 33/64/37
f 50/89/50 36/90/38 48/91/49
f 47/82/48 42/76/43 38/70/39
f 33/64/37 51/88/51 48/84/49
f 45/92/46 49/71/40 52/93/52
f 44/94/45 50/89/50 40/95/41
f 48/91/49 46/96/47 50/89/50
f 50/89/50 46/96/47 40/95/41
f 46/96/47 48/91/49 51/97/51
f 51/97/51 52/93/52 46/96/47
f 51/97/51 45/92/46 52/93/52
f 46/96/47 52/93/52 47/98/48
f 47/98/48 52/93/52 43/86/44
f 52/93/52 49/71/40 43/86/44
f 43/86/44 42/99/43 47/98/48
