# Blender 4.4.0
# www.blender.org
mtllib _1206012609_texture.mtl
o _1206012609_texture
v -0.602618 0.110146 -0.335223
v -0.484640 0.514802 -0.307540
v -0.001423 -0.333411 -0.353048
v -0.404769 -0.424212 -0.185949
v 0.003446 0.393921 -0.267349
v 0.467734 0.032699 -0.342096
v -0.721650 -0.056496 -0.200522
v -0.866973 0.271457 -0.183120
v 0.488596 0.460937 -0.296890
v -0.760440 0.513537 -0.225881
v 0.362037 -0.450117 -0.190168
v -0.296123 0.576048 -0.272820
v 0.366758 0.633644 -0.238187
v 0.710914 -0.048081 -0.206200
v 0.750920 0.525615 -0.212955
v 0.853063 -0.096073 -0.016082
v 0.864400 0.641495 -0.007718
v 0.869508 0.261666 -0.190892
v 1.000000 0.271834 -0.008281
v -0.521170 0.810997 -0.009722
v 0.280171 0.810972 -0.002647
v -1.000000 0.270593 -0.008955
v 0.003473 -0.733338 -0.148282
v -0.003311 -0.810997 -0.003426
v 0.868164 0.264597 -0.192387
v -0.527966 -0.463260 -0.003293
v 0.509736 -0.473747 -0.003080
v 0.771089 -0.190073 -0.008644
v 0.746693 0.513979 0.211594
v 0.738149 -0.012794 0.198515
v -0.000822 0.592190 0.005457
v 0.284269 0.710747 0.122321
v -0.408461 -0.412092 0.188271
v -0.875305 -0.068807 -0.008472
v -0.742568 0.502528 0.236096
v -0.719327 -0.065430 0.189597
v 0.861702 -0.087176 -0.011111
v -0.276442 0.574295 0.267134
v -0.255014 0.798218 -0.007737
v -0.515707 0.631337 0.195679
v -0.865173 0.637217 -0.010252
v 0.865246 0.261387 0.183291
v 0.008879 0.399388 0.264655
v 0.366666 -0.446704 0.185479
v 0.545964 0.807108 -0.011390
v 0.383387 0.545338 0.277329
v -0.867684 0.269561 0.167499
v -0.483497 0.440359 0.316671
v 0.420468 -0.005900 0.344481
v -0.004649 -0.741387 0.144344
v 0.007807 -0.322730 0.353048
v -0.588715 0.090241 0.338933
vn -0.5571 -0.1908 -0.8082
vn 0.0977 0.1159 -0.9884
vn 0.0374 0.0757 -0.9964
vn -0.6277 -0.5933 -0.5040
vn -0.4292 0.4237 -0.7977
vn 0.4451 -0.2247 -0.8668
vn -0.6526 -0.1931 -0.7327
vn -0.6626 -0.3026 -0.6851
vn 0.1843 0.0075 -0.9828
vn -0.7475 0.1521 -0.6466
vn 0.3393 -0.3439 -0.8756
vn 0.2853 0.7915 -0.5405
vn 0.2696 0.6775 -0.6843
vn 0.4442 -0.4996 -0.7437
vn 0.5910 -0.5521 -0.5881
vn 0.3306 -0.2717 -0.9038
vn 0.7425 0.1980 -0.6400
vn -0.5544 0.6761 -0.4854
vn 0.4766 -0.7142 -0.5126
vn 0.7762 0.6222 -0.1013
vn 0.4634 -0.4399 -0.7693
vn 0.3549 0.6699 -0.6521
vn 0.8205 -0.2746 -0.5014
vn -0.0870 0.7282 -0.6798
vn 0.1815 0.7671 0.6154
vn 0.8078 0.5370 -0.2431
vn -0.4186 -0.9079 0.0212
vn -0.7798 0.6261 -0.0013
vn 0.6099 -0.7471 -0.2641
vn 0.5573 0.6299 0.5410
vn -0.4052 -0.8008 0.4412
vn 0.6042 -0.6500 -0.4610
vn -0.3900 0.6909 0.6087
vn 0.6838 -0.5134 -0.5184
vn 0.6723 -0.5047 0.5416
vn 0.2092 0.7245 0.6568
vn -0.4710 0.6317 0.6157
vn -0.6557 -0.3947 0.6437
vn -0.6249 0.0417 0.7796
vn -0.4363 -0.4858 0.7574
vn -0.6571 -0.2042 0.7257
vn -0.0681 0.7454 0.6632
vn -0.3621 0.5963 0.7164
vn 0.3472 -0.1160 0.9306
vn 0.1466 0.7502 0.6447
vn -0.6705 -0.2958 0.6803
vn 0.6097 -0.6395 0.4683
vn 0.2991 0.6738 0.6757
vn -0.5821 -0.1964 0.7891
vn 0.1531 0.2026 0.9672
vn 0.3325 0.1547 0.9303
vn 0.0216 0.0802 0.9965
vt 0.164064 0.426989
vt 0.108189 0.309685
vt 0.392624 0.405336
vt 0.321400 0.507187
vt 0.245303 0.236667
vt 0.424790 0.224896
vt 0.173033 0.488164
vt 0.072553 0.442655
vt 0.342093 0.121948
vt 0.046509 0.365745
vt 0.502109 0.355618
vt 0.139212 0.256530
vt 0.279516 0.106746
vt 0.478942 0.493753
vt 0.498980 0.191953
vt 0.470818 0.087817
vt 0.389995 0.052300
vt 0.207409 0.189095
vt 0.697059 0.933536
vt 0.699702 0.793724
vt 0.768750 0.770735
vt 0.502109 0.057046
vt 0.700245 0.629893
vt 0.697059 0.527076
vt 0.771355 0.613561
vt 0.395033 0.000164
vt 0.697823 0.527469
vt 0.761518 0.500518
vt 0.043120 0.246019
vt 0.226567 0.081298
vt 0.288049 0.027669
vt 0.143140 0.520446
vt 0.044770 0.468271
vt 0.696732 0.818399
vt 0.686975 0.976183
vt 0.657881 0.991634
vt 0.035000 0.651109
vt 0.035000 0.539770
vt 0.035452 0.540669
vt 0.743021 0.954643
vt 0.106672 0.194241
vt 0.663283 0.799260
vt 0.772966 0.609828
vt 0.000164 0.356542
vt 0.772235 0.652012
vt 0.303843 0.539442
vt 0.034672 0.686533
vt 0.000164 0.574106
vt 0.034672 0.539770
vt 0.502437 0.322783
vt 0.564641 0.335186
vt 0.537237 0.438429
vt 0.815106 0.622829
vt 0.722412 0.173128
vt 0.636809 0.199267
vt 0.613610 0.172151
vt 0.594855 0.819098
vt 0.648611 0.639068
vt 0.619288 0.542099
vt 0.502437 0.558759
vt 0.563638 0.500518
vt 0.609879 0.979001
vt 0.580881 0.677063
vt 0.662709 0.462045
vt 0.636558 0.500190
vt 0.808068 0.022097
vt 0.804871 0.129845
vt 0.745805 0.075049
vt 0.849246 0.070074
vt 0.923532 0.000164
vt 0.929894 0.059689
vt 0.580826 0.418635
vt 0.767474 0.225912
vt 0.560029 0.575197
vt 0.806408 0.798086
vt 0.549302 0.222697
vt 0.779811 0.941806
vt 0.650263 0.260533
vt 0.999836 0.092149
vt 0.972887 0.190710
vt 0.882069 0.124555
vt 0.831973 0.498314
vt 0.745461 0.403105
vt 0.904270 0.403398
vt 0.974357 0.500190
vt 0.502437 0.900588
vt 0.510312 0.678198
s 1
usemtl Material
f 1/1/1 2/2/2 3/3/3
f 3/3/3 4/4/4 1/1/1
f 3/3/3 2/2/2 5/5/5
f 5/5/5 6/6/6 3/3/3
f 1/1/1 7/7/7 8/8/8
f 5/5/5 9/9/9 6/6/6
f 1/1/1 10/10/10 2/2/2
f 3/3/3 6/6/6 11/11/11
f 2/2/2 12/12/12 5/5/5
f 5/5/5 13/13/13 9/9/9
f 7/7/7 1/1/1 4/4/4
f 23/14/14 4/4/4 3/3/3
f 14/15/15 6/6/6 25/16/16
f 9/9/9 25/16/16 6/6/6
f 14/15/15 11/11/11 6/6/6
f 15/17/17 25/16/16 9/9/9
f 15/17/17 9/9/9 13/13/13
f 23/14/14 3/3/3 11/11/11
f 8/8/8 10/10/10 1/1/1
f 5/5/5 12/12/12 31/18/18
f 23/19/14 11/20/11 27/21/19
f 25/16/16 15/17/17 19/22/20
f 14/23/15 25/24/16 16/25/21
f 13/13/13 17/26/22 15/17/17
f 18/27/23 25/24/16 19/28/20
f 20/29/24 2/2/2 10/10/10
f 13/13/13 21/30/25 45/31/26
f 34/32/27 22/33/28 8/8/8
f 13/13/13 5/5/5 21/30/25
f 4/34/4 23/35/14 24/36/29
f 16/37/21 25/38/16 18/39/23
f 45/31/26 17/26/22 13/13/13
f 23/19/14 27/21/19 24/40/29
f 31/18/18 12/12/12 39/41/30
f 24/36/29 26/42/31 4/34/4
f 19/28/20 37/43/32 18/27/23
f 8/8/8 22/33/28 10/10/10
f 19/22/20 15/17/17 17/26/22
f 11/20/11 14/23/15 27/21/19
f 7/7/7 34/32/27 8/8/8
f 34/32/27 7/7/7 4/4/4
f 22/33/28 41/44/33 10/10/10
f 31/18/18 21/30/25 5/5/5
f 10/10/10 41/44/33 20/29/24
f 2/2/2 20/29/24 12/12/12
f 28/45/34 27/21/19 14/23/15
f 26/46/31 34/32/27 4/4/4
f 12/12/12 20/29/24 39/41/30
f 14/23/15 16/25/21 28/45/34
f 16/25/21 18/27/23 37/43/32
f 37/43/32 28/45/34 16/25/21
f 27/47/19 28/48/34 30/49/35
f 17/50/22 29/51/36 19/52/20
f 37/43/32 30/53/35 28/45/34
f 31/54/18 32/55/37 21/56/25
f 26/42/31 33/57/38 34/58/27
f 22/59/28 35/60/39 41/61/33
f 26/42/31 24/36/29 50/62/40
f 36/63/41 34/58/27 33/57/38
f 30/64/35 37/65/32 19/52/20
f 20/66/24 38/67/42 39/68/30
f 40/69/43 20/66/24 41/70/33
f 20/66/24 40/69/43 38/67/42
f 35/71/39 40/69/43 41/70/33
f 19/52/20 29/51/36 42/72/44
f 43/73/45 32/55/37 31/54/18
f 34/58/27 36/63/41 47/74/46
f 30/64/35 19/52/20 42/72/44
f 35/60/39 22/59/28 47/74/46
f 34/58/27 47/74/46 22/59/28
f 43/73/45 31/54/18 39/68/30
f 24/40/29 27/21/19 44/75/47
f 50/62/40 33/57/38 26/42/31
f 17/50/22 45/76/26 29/51/36
f 50/77/40 24/40/29 44/75/47
f 46/78/48 21/56/25 32/55/37
f 44/75/47 27/21/19 30/53/35
f 45/76/26 21/56/25 29/51/36
f 47/79/46 52/80/49 35/71/39
f 39/68/30 38/67/42 43/73/45
f 21/56/25 46/78/48 29/51/36
f 40/69/43 48/81/50 38/67/42
f 48/81/50 40/69/43 35/71/39
f 44/82/47 30/64/35 49/83/51
f 44/82/47 51/84/52 50/85/40
f 30/64/35 42/72/44 49/83/51
f 51/86/52 33/57/38 50/62/40
f 49/83/51 42/72/44 29/51/36
f 43/73/45 46/78/48 32/55/37
f 36/63/41 52/87/49 47/74/46
f 29/51/36 46/78/48 49/83/51
f 33/57/38 52/87/49 36/63/41
f 48/81/50 43/73/45 38/67/42
f 44/82/47 49/83/51 51/84/52
f 49/83/51 46/78/48 43/73/45
f 52/80/49 48/81/50 35/71/39
f 48/81/50 51/84/52 43/73/45
f 51/86/52 52/87/49 33/57/38
f 49/83/51 43/73/45 51/84/52
f 48/81/50 52/80/49 51/84/52
