<?xml version="1.0" encoding="UTF-8"?>
<svg id="icon" xmlns="http://www.w3.org/2000/svg" version="1.1" viewBox="0 0 345 316">
  <!-- Generator: Adobe Illustrator 29.8.1, SVG Export Plug-In . SVG Version: 2.1.1 Build 2)  -->
  <defs>
    <style>
      .st0, .st1 {
        fill: #0d0d0d;
      }

      .st1 {
        fill-rule: evenodd;
      }
    </style>
  </defs>
  <path class="st1" d="M55.98,255.27c-15.11,0-27.35,12.25-27.35,27.35s12.25,27.35,27.35,27.35,27.35-12.25,27.35-27.35-12.25-27.35-27.35-27.35ZM55.98,300.57c-9.91,0-17.94-8.03-17.94-17.94s8.03-17.94,17.94-17.94,17.94,8.03,17.94,17.94-8.03,17.94-17.94,17.94Z"/>
  <circle class="st0" cx="29.81" cy="217.24" r="11.36"/>
  <path class="st1" d="M302.41,12.72c-10.82,0-19.59,8.77-19.59,19.59s8.77,19.59,19.59,19.59,19.59-8.77,19.59-19.59-8.77-19.59-19.59-19.59ZM302.41,40.6c-4.91,0-8.9-3.98-8.9-8.9s3.98-8.9,8.9-8.9,8.9,3.98,8.9,8.9-3.98,8.9-8.9,8.9Z"/>
  <path class="st1" d="M186.28,82.56c-40.79,0-73.86,33.07-73.86,73.86s33.07,73.86,73.86,73.86,73.86-33.07,73.86-73.86-33.07-73.86-73.86-73.86ZM213.08,173.65c-13.08,0-23.69-10.61-23.69-23.69s10.61-23.69,23.69-23.69,23.69,10.61,23.69,23.69-10.61,23.69-23.69,23.69Z"/>
  <path class="st1" d="M186.28,17.68c-76.62,0-138.74,62.12-138.74,138.74s62.12,138.74,138.74,138.74,138.74-62.12,138.74-138.74S262.91,17.68,186.28,17.68ZM186.28,247.3c-50.19,0-90.88-40.69-90.88-90.88s40.69-90.88,90.88-90.88,90.88,40.69,90.88,90.88-40.69,90.88-90.88,90.88Z"/>
</svg>