<svg version="1.2" xmlns="http://www.w3.org/2000/svg" viewBox="0 0 345 316" width="345" height="316"><style>.a{fill:#f2f1f1}</style><path fill-rule="evenodd" class="a" d="m56 255.3c-15.1 0-27.4 12.2-27.4 27.3 0 15.1 12.3 27.4 27.4 27.4 15.1 0 27.3-12.3 27.3-27.4 0-15.1-12.2-27.3-27.3-27.3zm0 45.3c-9.9 0-18-8.1-18-18 0-9.9 8.1-17.9 18-17.9 9.9 0 17.9 8 17.9 17.9 0 9.9-8 18-17.9 18z"/><path class="a" d="m29.8 228.6c-6.3 0-11.3-5.1-11.3-11.4 0-6.2 5-11.3 11.3-11.3 6.3 0 11.4 5.1 11.4 11.3 0 6.3-5.1 11.4-11.4 11.4z"/><path fill-rule="evenodd" class="a" d="m302.4 12.7c-10.8 0-19.6 8.8-19.6 19.6 0 10.8 8.8 19.6 19.6 19.6 10.8 0 19.6-8.8 19.6-19.6 0-10.8-8.8-19.6-19.6-19.6zm0 27.9c-4.9 0-8.9-4-8.9-8.9 0-4.9 4-8.9 8.9-8.9 4.9 0 8.9 4 8.9 8.9 0 4.9-4 8.9-8.9 8.9z"/><path fill-rule="evenodd" class="a" d="m186.3 82.6c-40.8 0-73.9 33-73.9 73.8 0 40.8 33.1 73.9 73.9 73.9 40.8 0 73.8-33.1 73.8-73.9 0-40.8-33-73.8-73.8-73.8zm26.8 91.1c-13.1 0-23.7-10.7-23.7-23.7 0-13.1 10.6-23.7 23.7-23.7 13.1 0 23.7 10.6 23.7 23.7 0 13-10.6 23.7-23.7 23.7z"/><path fill-rule="evenodd" class="a" d="m186.3 17.7c-76.6 0-138.8 62.1-138.8 138.7 0 76.6 62.2 138.8 138.8 138.8 76.6 0 138.7-62.2 138.7-138.8 0-76.6-62.1-138.7-138.7-138.7zm0 229.6c-50.2 0-90.9-40.7-90.9-90.9 0-50.2 40.7-90.9 90.9-90.9 50.2 0 90.9 40.7 90.9 90.9 0 50.2-40.7 90.9-90.9 90.9z"/></svg>