<svg version="1.2" xmlns="http://www.w3.org/2000/svg" viewBox="0 0 920 316" width="920" height="316"><style>.a{opacity:.99;fill:#f2f1f1}.b{fill:#f2f1f1}</style><path fill-rule="evenodd" class="a" d="m679.2 78c-1.2 1.1-2.7 3.2-3.3 4.8-0.6 1.5-0.8 4.2-0.5 6 0.4 1.9 1.8 4.2 3.6 5.7 2.1 1.8 4.2 2.5 7.2 2.5 2.8 0.1 5.3-0.6 7-2 1.6-1.1 3.2-3.5 3.6-5.2 0.5-1.8 0.5-4.7 0.1-6.3-0.5-1.6-2-4-3.4-5.2-1.9-1.7-3.7-2.3-7.3-2.3-3.4 0-5.4 0.6-7 2zm-44.2 18v8h-8v17h8c0.5 34.7 0.6 35.7 3 39.7 1.5 2.6 4.1 5.2 6.5 6.4 2.8 1.5 6.6 2.4 12.8 2.8l8.7 0.6v-17.5c-6.2 0-8.9-0.4-10-1-1.9-0.9-2-2-2-16v-15h12v-17h-12v-16h-19zm-238.5 7.9c-2.2 0.5-5.8 1.8-8 2.8-2.2 1.1-5.9 4.2-8.3 6.9-3.1 3.6-4.9 6.8-6.4 11.9-1.6 5.5-2 8.5-1.5 14 0.3 3.9 1.3 9 2.1 11.5 0.8 2.5 3.5 6.8 5.9 9.5 2.8 3.2 6.3 5.8 9.8 7.4 3 1.3 7.9 2.6 10.9 2.9 3.5 0.3 7.5-0.1 11-1.1 3-0.9 7.4-3 9.7-4.6 2.4-1.7 5.6-5.5 7.3-8.3 1.6-2.9 3-6.1 3-7 0-1.6-1.1-1.8-9.5-1.8-9.1 0-9.6 0.1-11.8 2.8-1.3 1.5-3.8 3-5.5 3.5-2.1 0.4-4.4 0.2-6.7-0.8-1.9-0.8-4.1-2.5-4.9-3.7-0.8-1.3-1.7-3.5-2-5l-0.6-2.8h43.5c-1-12.8-2.1-17.4-3.7-21-1.4-3-3.8-7-5.4-8.8-1.6-1.9-5.2-4.5-7.9-5.8-2.8-1.2-7.7-2.5-11-2.8-3.3-0.3-7.8-0.1-10 0.3zm1.9 16.6c1.7-0.8 3.7-1.4 4.3-1.5 0.7 0 2.8 0.6 4.5 1.4 1.8 0.7 4.1 2.2 5 3.2 0.9 1.1 1.9 3.1 2.8 7.4h-12c-8.9 0-12-0.3-12-1.2 0-0.7 1-2.8 2.2-4.6 1.2-1.8 3.6-3.9 5.2-4.7zm183.6-16.4c-2.5 0.5-6.7 2.2-9.4 3.7-2.7 1.5-6 4.1-7.4 5.7-1.4 1.6-3.7 5.5-5.1 8.5-2.2 4.7-2.6 6.9-2.6 15 0 8.1 0.4 10.2 3 15.9 1.8 3.7 4.7 7.9 7 9.9 2.2 2 5.8 4.4 8 5.3 2.2 1 6.5 2.1 9.5 2.5 3.5 0.4 7.7 0.1 11.5-0.7 3.3-0.7 8-2.7 10.5-4.4 2.4-1.6 5.9-5 7.8-7.5 1.8-2.5 4.1-7 4.9-10 1.1-3.7 1.4-8.1 1.1-13.5-0.3-4.9-1.2-9.7-2.4-12.5-1.1-2.5-3.8-6.5-6-8.8-2.1-2.4-6.1-5.4-8.9-6.7-2.8-1.3-7.7-2.6-11-2.9-3.3-0.3-8 0-10.5 0.5zm0.8 18.7c1.5-1 4.2-1.8 6-1.8 1.7 0 4.5 0.7 6.2 1.5 1.8 0.9 3.8 3.2 5 5.8 1.1 2.3 2 6.2 2 8.7 0 2.5-0.8 6.3-1.8 8.5-1 2.2-2.9 4.8-4.3 5.8-1.4 1-4.2 1.7-6.6 1.7-2.4 0-5.2-0.4-6.3-1-1.1-0.6-3-2.7-4.2-4.7-1.7-2.9-2.2-5.4-2.2-10.3 0-4.4 0.6-7.5 1.7-9.5 1-1.6 3-3.8 4.5-4.7zm216.7-18.9c-2.2 0.5-5.8 1.8-8 2.8-2.2 1.1-5.9 4.2-8.3 6.9-2.3 2.7-5 7.2-6 9.9-1.1 3.2-1.7 8.1-1.7 13.5 0 5.4 0.6 10.4 1.7 13.5 0.9 2.8 3.7 7.3 6.1 10 2.8 3.2 6.3 5.8 9.8 7.4 3 1.3 7.9 2.6 10.9 2.9 3.5 0.3 7.5-0.1 11-1.1 3-0.9 7.4-3 9.8-4.6 2.3-1.7 5.5-5.5 7.2-8.4 1.6-2.8 3-6 3-7 0-1.5-1.1-1.7-9.5-1.7-9.1 0-9.6 0.1-11.8 2.7-1.3 1.6-3.8 3.1-5.5 3.5-2.1 0.5-4.4 0.3-6.7-0.7-1.9-0.8-4.1-2.5-4.9-3.8-0.8-1.2-1.7-3.4-2-5l-0.6-2.7h43.5c-1-12.8-2.1-17.4-3.7-21-1.4-3-3.8-7-5.4-8.8-1.6-1.9-5.1-4.5-7.9-5.8-2.7-1.2-7.7-2.5-11-2.8-3.3-0.3-7.8-0.1-10 0.3zm1.9 16.6c1.7-0.8 3.7-1.4 4.4-1.5 0.6 0 2.7 0.6 4.5 1.4 1.7 0.7 4 2.2 4.9 3.2 0.9 1.1 1.9 3.1 2.8 7.4h-12c-8.9 0-12-0.3-12-1.3 0-0.6 1-2.7 2.2-4.5 1.2-1.8 3.6-3.9 5.2-4.7zm-357.4 16.5v33h19c0-38.7 0.2-40.8 2-43.8 1.1-1.7 3.2-3.7 4.7-4.3 1.6-0.6 4.6-0.8 6.8-0.5 2.8 0.3 4.8 1.4 6.7 3.5l2.8 3.1v42h19c0-32.5 0.4-38.9 1.3-41.3 0.8-1.7 2.7-4.2 4.3-5.5 1.7-1.3 4.2-2.3 6.1-2.2 1.8 0 4.6 0.7 6.3 1.5 1.7 0.8 3.7 3 4.5 5 1.2 2.7 1.5 7.9 1.5 23v19.5h19c-0.6-39.8-1.1-47.6-2.1-50.4-0.8-2.1-3-5.7-4.9-7.9-1.9-2.2-5.3-4.9-7.5-5.9-2.5-1.1-6.4-1.8-10.5-1.8q-6.5 0-10.5 1.9c-2.2 1.1-5.5 3.6-7.3 5.5l-3.2 3.6c-6.6-6.7-10.3-9.2-12.5-9.9-2.3-0.8-6.8-1.2-10.7-1-5.5 0.3-7.4 0.9-11.2 3.6l-4.6 3.3v-7h-19zm233 0v33h19v-66h-19zm27.4-31.3c0.3 1 5.2 15.7 10.9 32.8l10.4 31h23.6c16.1-48.1 20.9-62.8 21.2-63.8 0.5-1.5-0.5-1.7-9.5-1.7h-10c-1.4 5-4.2 14.8-7.1 25-2.8 10.2-5.4 19.1-5.8 19.8-0.3 0.7-3.5-9-7.1-21.5l-6.5-22.8c-19.8-0.5-20.6-0.4-20.1 1.2zm-327.4 116.8v27.5h34l-0.5-8.5h-25v-15l21.5-0.5v-8h-22v-14h25v-9h-33zm64 0v27.5h8l0.5-36.5c24.2 36.1 24.6 36.5 28 36.5h3.5v-55h-8.1l-0.4 37.3c-24.5-36.6-25.1-37.4-28.3-37.3h-3.2zm83.5-26c-1.7 0.9-4.7 3.3-6.8 5.3-2.1 2.1-4.6 6.1-5.8 9.2-1.7 4.4-2 7.1-1.7 13.5 0.4 6.1 1.1 9.2 3.1 13.2 1.7 3.3 4.3 6.5 6.9 8.3 2.4 1.7 6.1 3.6 8.3 4.1 2.2 0.6 6 0.7 8.5 0.3 2.5-0.3 5.8-1.3 7.5-2.2 1.7-0.8 3.8-2.2 4.8-3.1 1.5-1.3 1.8-3.3 1.7-12.4v-10.7h-7l-0.5 17.5c-6.7 2.3-9.3 2.5-12 2-2.6-0.5-5.3-2-7.6-4.4-2.2-2.2-4.1-5.4-4.9-8.1-0.7-2.5-1-6.3-0.8-8.5 0.2-2.2 1.3-5.8 2.5-8 1.1-2.2 3.5-5 5.4-6.3 2.4-1.6 4.8-2.2 8.4-2.2 3.6 0 6 0.7 9 2.6l4 2.7c3.7-5 4.1-6.2 3.3-7.3-0.5-0.8-2.6-2.6-4.5-4-3-2-5.1-2.6-11.2-2.8-5.5-0.2-8.4 0.1-10.6 1.3zm58.5 26v27.5h8v-55h-8zm41 0v27.5h8l0.5-36.5c24.2 36.1 24.6 36.5 28 36.5h3.5v-55h-8.1l-0.4 37.3c-24.5-36.6-25.1-37.4-28.3-37.3h-3.2zm73 0v27.5h34l-0.5-8.5h-25v-15l21.5-0.5v-8h-22v-14h25v-9h-33z"/><path class="b" d="m819.8 65h7v-24.4h9.6v-5.7h-26.2v5.7h9.6zm54.7 0l-0.1-30.1h-5.7l-11.1 18.7-11.3-18.7h-5.7v30.1h6.5v-17.7l8.8 14.5h3.2l8.8-14.9 0.1 18.1z"/><path fill-rule="evenodd" class="b" d="m64.2 251.9c-15.1 0-27.3 12.3-27.3 27.4 0 15.1 12.2 27.3 27.3 27.3 15.1 0 27.4-12.2 27.4-27.3 0-15.1-12.3-27.4-27.4-27.4zm0 45.3c-9.9 0-17.9-8-17.9-17.9 0-9.9 8-18 17.9-18 9.9 0 18 8.1 18 18 0 9.9-8.1 17.9-18 17.9z"/><path class="b" d="m38.1 225.3c-6.3-0.1-11.4-5.1-11.4-11.4 0-6.3 5.1-11.4 11.4-11.4 6.3 0 11.3 5.1 11.3 11.4 0 6.3-5 11.3-11.3 11.3z"/><path fill-rule="evenodd" class="b" d="m310.7 9.4c-10.8 0-19.6 8.7-19.6 19.6 0 10.8 8.8 19.5 19.6 19.5 10.8 0 19.6-8.7 19.6-19.5 0-10.9-8.8-19.6-19.6-19.6zm0 27.9c-4.9 0-8.9-4-8.9-8.9 0-5 4-8.9 8.9-8.9 4.9 0 8.9 3.9 8.9 8.9 0 4.9-4 8.9-8.9 8.9z"/><path fill-rule="evenodd" class="b" d="m194.5 79.2c-40.8 0-73.8 33.1-73.8 73.9 0 40.8 33 73.8 73.8 73.8 40.8 0 73.9-33 73.9-73.8 0-40.8-33.1-73.9-73.9-73.9zm26.8 91.1c-13 0-23.6-10.6-23.6-23.7 0-13.1 10.6-23.7 23.6-23.7 13.1 0 23.7 10.6 23.7 23.7 0 13.1-10.6 23.7-23.7 23.7z"/><path fill-rule="evenodd" class="b" d="m194.5 14.3c-76.6 0-138.7 62.2-138.7 138.8 0 76.6 62.1 138.7 138.7 138.7 76.7 0 138.8-62.1 138.8-138.7 0-76.6-62.1-138.8-138.8-138.8zm0 229.7c-50.2 0-90.8-40.7-90.8-90.9 0-50.2 40.6-90.9 90.8-90.9 50.2 0 90.9 40.7 90.9 90.9 0 50.2-40.7 90.9-90.9 90.9z"/></svg>