<?xml version="1.0" encoding="UTF-8"?>
<svg xmlns="http://www.w3.org/2000/svg" version="1.1" viewBox="0 0 920 316">
  <!-- Generator: Adobe Illustrator 29.8.1, SVG Export Plug-In . SVG Version: 2.1.1 Build 2)  -->
  <defs>
    <style>
      .st0 {
        isolation: isolate;
        opacity: .99;
      }

      .st0, .st1, .st2 {
        fill: #0d0d0d;
      }

      .st0, .st2 {
        fill-rule: evenodd;
      }
    </style>
  </defs>
  <g id="Layer_1">
    <path class="st0" d="M679.2,78c-1.2,1.1-2.7,3.2-3.3,4.8-.6,1.5-.8,4.2-.5,6,.4,1.9,1.8,4.2,3.6,5.7,2.1,1.8,4.2,2.5,7.2,2.5,2.8.1,5.3-.6,7-2,1.6-1.1,3.2-3.5,3.6-5.2.5-1.8.5-4.7.1-6.3-.5-1.6-2-4-3.4-5.2-1.9-1.7-3.7-2.3-7.3-2.3-3.4,0-5.4.6-7,2h0ZM635,96v8h-8v17h8c.5,34.7.6,35.7,3,39.7,1.5,2.6,4.1,5.2,6.5,6.4,2.8,1.5,6.6,2.4,12.8,2.8l8.7.6v-17.5c-6.2,0-8.9-.4-10-1-1.9-.9-2-2-2-16v-15h12v-17h-12v-16h-19v8ZM396.5,103.9c-2.2.5-5.8,1.8-8,2.8-2.2,1.1-5.9,4.2-8.3,6.9-3.1,3.6-4.9,6.8-6.4,11.9-1.6,5.5-2,8.5-1.5,14,.3,3.9,1.3,9,2.1,11.5.8,2.5,3.5,6.8,5.9,9.5,2.8,3.2,6.3,5.8,9.8,7.4,3,1.3,7.9,2.6,10.9,2.9,3.5.3,7.5-.1,11-1.1,3-.9,7.4-3,9.7-4.6,2.4-1.7,5.6-5.5,7.3-8.3,1.6-2.9,3-6.1,3-7,0-1.6-1.1-1.8-9.5-1.8-9.1,0-9.6.1-11.8,2.8-1.3,1.5-3.8,3-5.5,3.5-2.1.4-4.4.2-6.7-.8-1.9-.8-4.1-2.5-4.9-3.7-.8-1.3-1.7-3.5-2-5l-.6-2.8h43.5c-1-12.8-2.1-17.4-3.7-21-1.4-3-3.8-7-5.4-8.8-1.6-1.9-5.2-4.5-7.9-5.8-2.8-1.2-7.7-2.5-11-2.8s-7.8-.1-10,.3h0ZM398.4,120.5c1.7-.8,3.7-1.4,4.3-1.5.7,0,2.8.6,4.5,1.4,1.8.7,4.1,2.2,5,3.2.9,1.1,1.9,3.1,2.8,7.4h-12c-8.9,0-12-.3-12-1.2,0-.7,1-2.8,2.2-4.6,1.2-1.8,3.6-3.9,5.2-4.7ZM582,104.1c-2.5.5-6.7,2.2-9.4,3.7s-6,4.1-7.4,5.7-3.7,5.5-5.1,8.5c-2.2,4.7-2.6,6.9-2.6,15s.4,10.2,3,15.9c1.8,3.7,4.7,7.9,7,9.9,2.2,2,5.8,4.4,8,5.3,2.2,1,6.5,2.1,9.5,2.5,3.5.4,7.7.1,11.5-.7,3.3-.7,8-2.7,10.5-4.4,2.4-1.6,5.9-5,7.8-7.5,1.8-2.5,4.1-7,4.9-10,1.1-3.7,1.4-8.1,1.1-13.5-.3-4.9-1.2-9.7-2.4-12.5-1.1-2.5-3.8-6.5-6-8.8-2.1-2.4-6.1-5.4-8.9-6.7-2.8-1.3-7.7-2.6-11-2.9s-8,0-10.5.5h0ZM582.8,122.8c1.5-1,4.2-1.8,6-1.8,1.7,0,4.5.7,6.2,1.5,1.8.9,3.8,3.2,5,5.8,1.1,2.3,2,6.2,2,8.7s-.8,6.3-1.8,8.5-2.9,4.8-4.3,5.8c-1.4,1-4.2,1.7-6.6,1.7s-5.2-.4-6.3-1-3-2.7-4.2-4.7c-1.7-2.9-2.2-5.4-2.2-10.3,0-4.4.6-7.5,1.7-9.5,1-1.6,3-3.8,4.5-4.7h0ZM799.5,103.9c-2.2.5-5.8,1.8-8,2.8-2.2,1.1-5.9,4.2-8.3,6.9-2.3,2.7-5,7.2-6,9.9-1.1,3.2-1.7,8.1-1.7,13.5s.6,10.4,1.7,13.5c.9,2.8,3.7,7.3,6.1,10,2.8,3.2,6.3,5.8,9.8,7.4,3,1.3,7.9,2.6,10.9,2.9,3.5.3,7.5-.1,11-1.1,3-.9,7.4-3,9.8-4.6,2.3-1.7,5.5-5.5,7.2-8.4,1.6-2.8,3-6,3-7,0-1.5-1.1-1.7-9.5-1.7-9.1,0-9.6.1-11.8,2.7-1.3,1.6-3.8,3.1-5.5,3.5-2.1.5-4.4.3-6.7-.7-1.9-.8-4.1-2.5-4.9-3.8-.8-1.2-1.7-3.4-2-5l-.6-2.7h43.5c-1-12.8-2.1-17.4-3.7-21-1.4-3-3.8-7-5.4-8.8-1.6-1.9-5.1-4.5-7.9-5.8-2.7-1.2-7.7-2.5-11-2.8s-7.8-.1-10,.3h0ZM801.4,120.5c1.7-.8,3.7-1.4,4.4-1.5.6,0,2.7.6,4.5,1.4,1.7.7,4,2.2,4.9,3.2.9,1.1,1.9,3.1,2.8,7.4h-12c-8.9,0-12-.3-12-1.3,0-.6,1-2.7,2.2-4.5s3.6-3.9,5.2-4.7h0ZM444,137v33h19c0-38.7.2-40.8,2-43.8,1.1-1.7,3.2-3.7,4.7-4.3,1.6-.6,4.6-.8,6.8-.5,2.8.3,4.8,1.4,6.7,3.5l2.8,3.1v42h19c0-32.5.4-38.9,1.3-41.3.8-1.7,2.7-4.2,4.3-5.5,1.7-1.3,4.2-2.3,6.1-2.2,1.8,0,4.6.7,6.3,1.5s3.7,3,4.5,5c1.2,2.7,1.5,7.9,1.5,23v19.5h19c-.6-39.8-1.1-47.6-2.1-50.4-.8-2.1-3-5.7-4.9-7.9-1.9-2.2-5.3-4.9-7.5-5.9-2.5-1.1-6.4-1.8-10.5-1.8-4.33,0-7.83.63-10.5,1.9-2.2,1.1-5.5,3.6-7.3,5.5l-3.2,3.6c-6.6-6.7-10.3-9.2-12.5-9.9-2.3-.8-6.8-1.2-10.7-1-5.5.3-7.4.9-11.2,3.6l-4.6,3.3v-7h-19v33ZM677,137v33h19v-66h-19v33ZM704.4,105.7c.3,1,5.2,15.7,10.9,32.8l10.4,31h23.6c16.1-48.1,20.9-62.8,21.2-63.8.5-1.5-.5-1.7-9.5-1.7h-10c-1.4,5-4.2,14.8-7.1,25-2.8,10.2-5.4,19.1-5.8,19.8-.3.7-3.5-9-7.1-21.5l-6.5-22.8c-19.8-.5-20.6-.4-20.1,1.2h0ZM377,222.5v27.5h34l-.5-8.5h-25v-15l21.5-.5v-8h-22v-14h25v-9h-33v27.5ZM441,222.5v27.5h8l.5-36.5c24.2,36.1,24.6,36.5,28,36.5h3.5v-55h-8.1l-.4,37.3c-24.5-36.6-25.1-37.4-28.3-37.3h-3.2v27.5ZM524.5,196.5c-1.7.9-4.7,3.3-6.8,5.3-2.1,2.1-4.6,6.1-5.8,9.2-1.7,4.4-2,7.1-1.7,13.5.4,6.1,1.1,9.2,3.1,13.2,1.7,3.3,4.3,6.5,6.9,8.3,2.4,1.7,6.1,3.6,8.3,4.1,2.2.6,6,.7,8.5.3,2.5-.3,5.8-1.3,7.5-2.2,1.7-.8,3.8-2.2,4.8-3.1,1.5-1.3,1.8-3.3,1.7-12.4v-10.7h-7l-.5,17.5c-6.7,2.3-9.3,2.5-12,2-2.6-.5-5.3-2-7.6-4.4-2.2-2.2-4.1-5.4-4.9-8.1-.7-2.5-1-6.3-.8-8.5s1.3-5.8,2.5-8c1.1-2.2,3.5-5,5.4-6.3,2.4-1.6,4.8-2.2,8.4-2.2s6,.7,9,2.6l4,2.7c3.7-5,4.1-6.2,3.3-7.3-.5-.8-2.6-2.6-4.5-4-3-2-5.1-2.6-11.2-2.8-5.5-.2-8.4.1-10.6,1.3h0ZM583,222.5v27.5h8v-55h-8v27.5ZM624,222.5v27.5h8l.5-36.5c24.2,36.1,24.6,36.5,28,36.5h3.5v-55h-8.1l-.4,37.3c-24.5-36.6-25.1-37.4-28.3-37.3h-3.2v27.5ZM697,222.5v27.5h34l-.5-8.5h-25v-15l21.5-.5v-8h-22v-14h25v-9h-33v27.5Z"/>
    <path d="M819.8,65h7v-24.4h9.6v-5.7h-26.2v5.7h9.6v24.4ZM874.5,65l-.1-30.1h-5.7l-11.1,18.7-11.3-18.7h-5.7v30.1h6.5v-17.7l8.8,14.5h3.2l8.8-14.9.1,18.1h6.5Z"/>
  </g>
  <g id="Layer_2">
    <path class="st2" d="M64.24,251.92c-15.11,0-27.35,12.25-27.35,27.35s12.25,27.35,27.35,27.35,27.35-12.25,27.35-27.35-12.25-27.35-27.35-27.35ZM64.24,297.22c-9.91,0-17.94-8.03-17.94-17.94s8.03-17.94,17.94-17.94,17.94,8.03,17.94,17.94-8.03,17.94-17.94,17.94Z"/>
    <circle class="st1" cx="38.07" cy="213.89" r="11.36"/>
    <path class="st2" d="M310.67,9.37c-10.82,0-19.59,8.77-19.59,19.59s8.77,19.59,19.59,19.59,19.59-8.77,19.59-19.59-8.77-19.59-19.59-19.59ZM310.67,37.25c-4.91,0-8.9-3.98-8.9-8.9s3.98-8.9,8.9-8.9,8.9,3.98,8.9,8.9-3.98,8.9-8.9,8.9Z"/>
    <path class="st2" d="M194.54,79.21c-40.79,0-73.86,33.07-73.86,73.86s33.07,73.86,73.86,73.86,73.86-33.07,73.86-73.86-33.07-73.86-73.86-73.86ZM221.34,170.3c-13.08,0-23.69-10.61-23.69-23.69s10.61-23.69,23.69-23.69,23.69,10.61,23.69,23.69-10.61,23.69-23.69,23.69Z"/>
    <path class="st2" d="M194.54,14.33c-76.62,0-138.74,62.12-138.74,138.74s62.12,138.74,138.74,138.74,138.74-62.12,138.74-138.74S271.17,14.33,194.54,14.33ZM194.54,243.96c-50.19,0-90.88-40.69-90.88-90.88s40.69-90.88,90.88-90.88,90.88,40.69,90.88,90.88-40.69,90.88-90.88,90.88Z"/>
  </g>
</svg>