<svg version="1.2" xmlns="http://www.w3.org/2000/svg" viewBox="77 78 862 215" width="862" height="215"><style>.a{opacity:1;fill:#0b0b0b}</style><path fill-rule="evenodd" class="a" d="m474 93.6c-3 0.2-11.8 0.8-19.5 1.4-7.7 0.6-21.9 2.2-31.5 3.6-9.6 1.4-25.1 4-34.5 5.9-9.4 1.8-25.3 5.6-35.5 8.4-10.2 2.8-26.6 7.8-36.5 11.1-9.9 3.4-23.9 8.5-31 11.5-7.1 2.9-17.5 7.4-23 10-5.5 2.6-12.4 5.8-15.3 7.1-2.8 1.3-5.4 2.3-5.6 2.2-0.2-0.2-4.9-8.4-10.4-18.3-5.5-9.9-10.6-18.5-11.4-19.1-0.7-0.7-6.7-2.4-13.3-3.8-7.2-1.6-12.7-2.4-13.9-1.9-1 0.4-6.4 8.2-11.9 17.3-5.5 9.1-19.5 31.8-31 50.5-11.6 18.7-26.6 43-33.5 54-6.9 11-14.9 23.8-17.9 28.5-2.9 4.7-5.3 9.4-5.3 10.5 0 1.1 0.5 2.8 1.2 3.7 1.2 1.6 8.4 1.8 95.8 2.4l94.5 0.6c15.9-7.5 19.9-10 20.6-11.4 1-2 0-4.4-8.6-19.8-5.4-9.6-10.8-19.4-12.1-21.7l-2.4-4.3c19.8-9.9 30.2-14.8 36-17.3 5.8-2.4 16.1-6.5 23-9 6.9-2.5 17.9-6.1 24.5-8.1 6.6-1.9 17.4-4.9 24-6.5 6.6-1.6 17-3.8 23-4.9 6-1.1 13.9-2.5 17.5-3.1 3.6-0.6 12.3-1.8 19.5-2.6 7.2-0.8 22.5-2 34-2.7 16.2-0.9 26.4-0.9 44.5 0.1 12.9 0.6 28.7 1.8 35 2.6 6.3 0.8 15.8 2.2 21 3.1 5.2 0.8 16 2.9 24 4.5 8 1.7 21.6 5 30.3 7.5 8.6 2.4 22.6 6.8 30.9 9.8 8.4 3 22.3 8.5 30.8 12.1 8.5 3.7 19 8.5 23.3 10.6 4.2 2.2 7.7 4.1 7.7 4.4 0 0.3-3.1 6-6.9 12.8-3.8 6.7-9 15.8-11.5 20.2-2.5 4.4-4.6 8.9-4.6 10 0 1.1 0.7 2.7 1.7 3.6 1 0.9 5.1 3.3 9.1 5.3l7.2 3.6c182.8-0.1 189.6-0.2 191.3-1.8 1-0.9 1.7-2.6 1.7-3.7 0-1.1-13.6-24.1-30.2-51-16.6-26.9-38.2-62.3-48-78.5-9.8-16.2-18.6-30.1-19.6-30.7-1.4-1-3.9-0.8-13.2 1.2-6.3 1.3-12.2 2.6-13 2.9-0.8 0.3-6.5 9.2-12.5 19.7-6 10.5-11.2 19.3-11.5 19.4-0.3 0.1-8.2-3.3-17.5-7.6-9.3-4.3-22.8-10.1-30-13-7.2-2.9-20-7.6-28.5-10.6-8.5-3-24.5-7.9-35.5-10.9-11-3-26.5-6.8-34.5-8.4-8-1.6-18.8-3.5-24-4.4-5.2-0.8-12.7-2-16.5-2.5-3.8-0.6-13.8-1.8-22-2.6-9.4-1-27.8-1.7-49-1.9-18.7-0.2-36.5-0.2-39.5 0zm-5.5 8.5c-7.2 0.4-18 1.3-24 1.9-6 0.7-16.8 2.1-24 3.1-7.1 1.1-20.9 3.6-30.5 5.5-9.6 1.9-24.3 5.3-32.5 7.5-8.3 2.2-22 6.2-30.5 9-8.5 2.8-24 8.4-34.5 12.5-10.5 4.2-29.5 12.7-42.3 19-17.7 8.7-23.6 11.2-25 10.5-0.9-0.5-8-12-15.7-25.5-7.7-13.6-14.3-24.6-14.8-24.6-0.4 0-1 0.8-1.3 1.8-0.3 0.9-6.2 10.9-13.1 22.2-6.9 11.3-16.6 27-21.6 35-4.9 8-14 22.6-20.2 32.5-6.2 9.9-16.5 26.6-23 37-6.5 10.4-12 19.6-12.1 20.3-0.3 0.9 18 1.2 89.1 1.2 49.2 0 89.5-0.2 89.5-0.5 0-0.3-5.8-10.5-12.9-22.7-7.1-12.3-13.3-23.3-13.8-24.5l-0.8-2.2c-6.6 3.8-8.5 5.3-8.5 5.9 0 0.6 3.6 7.2 8 14.8 4.6 7.7 8 14.6 7.8 15.7-0.3 2-1.1 2-69.3 2-60.5 0-69-0.2-69.3-1.5-0.2-0.8 3.4-7.6 7.9-15 4.5-7.4 12.6-20.5 17.9-29 5.3-8.5 13.5-21.6 18.1-29 4.6-7.4 12-19.5 16.4-26.9 4.4-7.3 8.7-13.9 9.7-14.5 1.2-0.8 2-0.8 3.3 0.4 0.9 0.8 5.3 7.8 9.7 15.5 4.5 7.7 9.8 17 11.9 20.8l3.9 6.7c12.8-7.2 23.6-12.8 32.2-17.1 8.7-4.4 22.1-10.6 29.8-13.9 7.7-3.3 20.2-8.3 27.7-11.1 7.6-2.7 20.3-7 28.3-9.4 8-2.4 21-5.9 29-7.9 8-1.9 20.1-4.6 27-6 6.9-1.4 19-3.4 27-4.6 8-1.1 21.7-2.7 30.5-3.6 8.8-0.8 27.7-1.7 42-2.1 19.3-0.4 31.6-0.1 47.5 1.1 11.8 0.9 26.9 2.3 33.5 3.1 6.6 0.9 16.3 2.2 21.5 3.1 5.2 0.8 17.2 3.1 26.5 5.1 9.3 1.9 24.7 5.7 34 8.3 9.3 2.7 22.8 6.9 30 9.4 7.2 2.4 17.3 6.1 22.5 8.1 5.2 2 15.8 6.4 23.5 9.7 7.7 3.4 23.7 11 35.5 17 11.8 6 21.6 10.7 21.6 10.6 0.1-0.2 5.4-9.5 11.9-20.8 6.4-11.3 12.3-21.2 13-22 0.8-0.8 2-1.2 2.7-0.9 0.7 0.3 5.1 6.9 9.7 14.5 4.6 7.6 16.3 26.7 25.9 42.4 9.6 15.7 21.2 34.7 25.8 42.3 4.6 7.5 8.3 14.5 8.1 15.5-0.2 1.6-4.2 1.7-68.2 1.7h-68c-0.5-4.2 2-9.3 7.1-18 4.2-7.1 7.8-13.3 8-13.7 0.2-0.5-1.5-2-3.9-3.4-2.3-1.4-4.5-2.2-4.8-1.7-0.3 0.4-5.7 9.8-11.9 20.8-6.2 11-12.2 21.2-13.2 22.8-1 1.5-1.8 3.2-1.8 3.7 0 0.7 30.2 1 88.5 1 70.3 0 88.4-0.3 88.2-1.2-0.2-0.7-4.2-7.6-8.9-15.3-4.7-7.7-15.5-25.2-24-39-8.5-13.7-22.4-36.5-31-50.5-8.5-14-17.9-29.7-20.9-34.7-3-5.1-5.6-9.3-5.9-9.3-0.3-0.1-1.1 1.2-1.8 2.7-0.7 1.5-7 12.6-14 24.7-7 12-13.4 22.4-14.4 23-1.3 0.9-5.9-0.9-24-9.6-12.2-5.8-26.1-12.3-30.8-14.3-4.7-2-14.8-6.1-22.5-9-7.7-2.9-21.2-7.6-30-10.4-8.8-2.9-23-7-31.5-9.1-8.5-2.2-19.8-4.8-25-5.9-5.2-1.1-13.3-2.7-18-3.5-4.7-0.8-13.2-2.1-19-3-5.8-0.8-14.5-2-19.5-2.6-5-0.5-16.7-1.5-26-2-9.3-0.5-26.7-0.9-38.5-0.8-11.8 0-27.3 0.4-34.5 0.9zm-269.9 19.5c0.3 1 6.2 11.8 13.1 23.9 6.9 12.1 13.3 22.5 14.2 23.2 1.3 1 2.4 0.8 5.6-0.9 2.2-1.1 4.6-2.4 5.2-2.9 1-0.7-1.6-5.9-9.8-20.1-6.1-10.6-11.6-19.9-12.3-20.6-0.6-0.6-3.8-1.6-7.1-2.2-3.3-0.5-6.8-1.2-7.8-1.6-1.3-0.6-1.6-0.4-1.1 1.2zm608.3 0.3c-4.2 0.9-7.9 1.8-8.2 2.1-0.2 0.3-5.5 9.3-11.6 20-6.1 10.7-11.1 20-11.1 20.5 0 0.6 2.2 2.1 5 3.5 4.5 2.2 5.2 2.3 6.5 1 0.7-0.8 3.8-5.8 6.8-11 2.9-5.2 8.9-15.6 13.2-23 4.2-7.4 7.9-13.8 8-14.2 0.1-0.5 0-0.7-0.4-0.7-0.3 0.1-4 0.9-8.2 1.8zm-339.4 35.2c-7.2 0.5-21.3 2.1-31.5 3.5-10.2 1.4-25.9 4.1-35 6-9.1 1.8-23.7 5.4-32.5 7.8-8.8 2.4-22.1 6.5-29.5 9.1-7.4 2.5-18.7 6.6-25 9.1-6.3 2.6-20.7 9.2-32 14.7l-20.5 10.1c9 0.6 11.5-0.4 26.7-7.8 9.5-4.7 23.8-11.2 31.8-14.5 8-3.3 21.2-8.2 29.5-11 8.2-2.7 22-6.8 30.5-9 8.5-2.2 22.7-5.3 31.5-7 8.8-1.6 23-3.9 31.5-5.1 8.5-1.1 26.5-2.6 40-3.2 18.9-0.9 29.8-0.9 47.5 0 12.7 0.7 29.5 2.1 37.5 3.2 8 1.1 20.8 3.2 28.5 4.6 7.7 1.4 18.7 3.6 24.5 5 5.8 1.4 15.2 3.9 21 5.5 5.8 1.7 15.9 4.9 22.5 7.1 6.6 2.2 17.4 6.2 24 8.8 6.6 2.6 16.7 6.9 22.5 9.5 5.8 2.6 14.9 6.9 20.2 9.6 8.2 4.1 10.6 4.9 14.5 4.6l4.8-0.2c-20.2-10.2-33.7-16.4-43-20.4-9.3-4-26.2-10.4-37.5-14.1-11.3-3.8-28.6-8.9-38.5-11.4-9.9-2.5-23-5.4-29-6.5-6-1.1-17.3-2.9-25-4-7.7-1.1-18.7-2.5-24.5-3.1-5.8-0.6-24.5-1.3-41.5-1.5-17-0.2-36.8 0.1-44 0.6zm-210.1 64.2c-0.3 0.6 5.4 11.6 12.7 24.2 7.2 12.6 13.5 23.3 13.8 23.8 0.3 0.4 3.4-0.5 6.9-2l6.2-2.8-25.5-44.5c-11.2 0-13.7 0.4-14.1 1.3zm484.3-0.5c-0.3 0.4-6 10.4-12.7 22.2-6.7 11.8-11.8 21.8-11.3 22.1 0.4 0.3 3.3 1.5 6.3 2.7 3 1.2 5.5 2.1 5.6 1.9 0-0.1 6.2-11 13.8-24.2 10.4-18 13.5-24.2 12.4-24.7-0.7-0.4-4.1-0.8-7.5-0.8-3.4 0-6.4 0.3-6.6 0.8z"/></svg>